<svg width="36" height="49" fill="none" xmlns="http://www.w3.org/2000/svg"><path d="M17.913 11.025a6.125 6.125 0 1 1 0 12.25 6.125 6.125 0 0 1 0-12.25Zm0-11.025a17.15 17.15 0 0 1 17.15 17.15c0 12.863-17.15 31.85-17.15 31.85S.763 30.012.763 17.15A17.15 17.15 0 0 1 17.913 0Zm0 3.267c-3.25 0-7.503 1.786-9.8 4.083-2.298 2.297-4.084 6.551-4.084 9.8 0 2.45 1.634 10.617 13.884 27.056C30.163 27.766 31.796 19.6 31.796 17.15c0-3.249-1.786-7.503-4.083-9.8-2.298-2.297-6.551-4.083-9.8-4.083Z" fill="#41B1F1"/></svg>