<svg width="378" height="71" fill="none" xmlns="http://www.w3.org/2000/svg"><path d="M192.028 1.184c-28.604-2.012-75.484 8.945-96.483 19.008 18.729-5.59 63.225-16.883 94.781-15.094 39.444 2.236 76.903 30.297 85.416 31.026 8.513.73 31.783 2.516 56.187 6.429 24.405 3.913 39.445 15.933 45.12 24.039-7.094-14.535-20.999-21.803-43.701-27.114-33.769-7.267-47.674-3.074-66.119-11.18-18.446-8.106-39.445-24.598-75.201-27.114Z" fill="#FDFDFD"/><path d="M354.633 52.615c-12.486-4.751-26.959.187-34.337 3.355 0 0 20.432-3.913 32.634 0 12.203 3.913 22.418 14.814 22.418 14.814s-1.702-10.901-20.715-18.169Zm-218.507-28.79C91.573 21.87 2.07 18.011.481 18.235l172.535 12.858-36.89-7.268Zm66.403 11.181c-53.161-2.05-160.22-6.15-163.17-6.15C107.747 34.169 244.98 44.79 246.797 44.79c1.816 0-28.756-6.522-44.269-9.783Zm61.579 12.299-162.603-5.59L308.66 56.809l-44.552-9.504Z" fill="#FDFDFD"/></svg>