<svg width="57" height="57" fill="none" xmlns="http://www.w3.org/2000/svg"><path d="M31.822 2.591c-.866-3.455-5.771-3.455-6.64 0l-.253 1.02a3.42 3.42 0 0 1-5.779 1.545l-.73-.751c-2.476-2.562-6.726-.107-5.746 3.316l.285 1.012a3.42 3.42 0 0 1-4.226 4.229l-1.011-.289c-3.42-.98-5.878 3.27-3.317 5.746l.752.73a3.42 3.42 0 0 1-1.546 5.78l-1.02.252c-3.455.866-3.455 5.771 0 6.64l1.02.253a3.42 3.42 0 0 1 1.546 5.779l-.752.73c-2.561 2.476-.107 6.726 3.317 5.747l1.011-.285a3.42 3.42 0 0 1 4.23 4.228l-.29 1.008c-.98 3.42 3.271 5.879 5.747 3.317l.73-.752a3.42 3.42 0 0 1 5.779 1.547l.253 1.018c.865 3.456 5.77 3.456 6.64 0l.253-1.019a3.419 3.419 0 0 1 5.778-1.546l.73.752c2.477 2.562 6.727.107 5.747-3.317l-.285-1.011a3.42 3.42 0 0 1 4.229-4.23l1.008.29c3.42.98 5.878-3.27 3.317-5.747l-.752-.73a3.42 3.42 0 0 1 1.546-5.779l1.019-.252c3.455-.866 3.455-5.772 0-6.641l-1.02-.253a3.42 3.42 0 0 1-1.545-5.778l.752-.73c2.56-2.477.106-6.727-3.317-5.747l-1.012.285a3.42 3.42 0 0 1-4.229-4.225l.289-1.012c.98-3.42-3.27-5.878-5.746-3.316l-.73.751a3.42 3.42 0 0 1-5.779-1.546l-.253-1.019Zm-3.32 43.712a17.806 17.806 0 1 1 0-35.607 17.805 17.805 0 0 1 0 35.61v-.003Z" fill="#fff"/></svg>