<svg width="49" height="53" fill="none" xmlns="http://www.w3.org/2000/svg"><path d="M21.963 46.918H6.991A4.991 4.991 0 0 1 2 41.927V11.982A4.99 4.99 0 0 1 6.99 6.99h29.946a4.99 4.99 0 0 1 4.99 4.99v12.48M31.947 2v9.982M11.981 2v9.982M2 21.963h39.927m-2.493 24.955a4.991 4.991 0 1 1 0-9.982m0 9.982a4.99 4.99 0 1 0 0-9.982m0 9.982v3.743m0-13.725v-3.743m7.564 4.367-3.242 1.871m-8.642 4.991-3.244 1.872m0-8.734 3.244 1.871m8.642 4.991L47 46.294" stroke="#fff" stroke-width="4" stroke-linecap="round" stroke-linejoin="round"/></svg>