<svg width="45" height="46" fill="none" xmlns="http://www.w3.org/2000/svg"><path d="M38.442 6.58A22.206 22.206 0 0 0 22.59 0C10.244 0 .18 10.063.18 22.41a22.47 22.47 0 0 0 2.986 11.193L0 45.226l11.872-3.12a22.416 22.416 0 0 0 10.718 2.736c12.347 0 22.41-10.063 22.41-22.41 0-5.992-2.33-11.623-6.558-15.851ZM22.59 41.044c-3.346 0-6.625-.905-9.497-2.6l-.678-.408-7.056 1.855 1.877-6.875-.452-.7a18.678 18.678 0 0 1-2.85-9.905c0-10.267 8.367-18.634 18.634-18.634 4.975 0 9.656 1.945 13.16 5.473a18.496 18.496 0 0 1 5.45 13.183c.046 10.267-8.321 18.61-18.588 18.61Zm10.222-13.93c-.566-.271-3.325-1.628-3.822-1.831-.52-.181-.882-.272-1.266.27-.385.566-1.448 1.832-1.764 2.194-.317.385-.656.43-1.221.136-.566-.271-2.375-.882-4.5-2.781-1.674-1.493-2.782-3.325-3.12-3.89-.317-.565-.046-.86.248-1.153.249-.249.565-.656.836-.973.272-.316.385-.565.566-.927.18-.384.09-.7-.045-.972-.136-.271-1.267-3.03-1.719-4.16-.452-1.086-.927-.95-1.266-.973h-1.086c-.384 0-.972.136-1.492.7-.498.566-1.945 1.923-1.945 4.682 0 2.759 2.013 5.427 2.284 5.789.271.384 3.957 6.037 9.565 8.457a27.35 27.35 0 0 0 3.189 1.176c1.334.43 2.555.362 3.527.226 1.086-.158 3.325-1.357 3.777-2.668.475-1.312.475-2.42.316-2.669-.158-.248-.497-.361-1.062-.633Z" fill="#fff"/></svg>